<?xml version="1.0" encoding="UTF-8"?>
<svg version="1.1" xmlns="http://www.w3.org/2000/svg" width="1563" height="358">
<path d="M0 0 C515.79 0 1031.58 0 1563 0 C1563 118.14 1563 236.28 1563 358 C1047.21 358 531.42 358 0 358 C0 239.86 0 121.72 0 0 Z " fill="#FEFEFE" transform="translate(0,0)"/>
<path d="M0 0 C0.66 0 1.32 0 2 0 C3.70173705 2.00670785 5.29549925 4.02488169 6.875 6.125 C10.77955333 11.21338067 14.78730303 16.1637085 19 21 C23.45463554 26.12849415 27.69629248 31.38022776 31.85546875 36.75 C35.11981246 40.94033232 38.51772465 44.98956463 42 49 C46.4537707 54.12927834 50.69625218 59.38017572 54.85546875 64.75 C58.11981246 68.94033232 61.51772465 72.98956463 65 77 C69.45479332 82.13045605 73.6997634 87.3814961 77.85766602 92.75439453 C81.09306579 96.91047415 84.47515481 100.9070514 87.9375 104.875 C103.58804503 122.96568377 115.65389768 139.80283898 114.24267578 164.6484375 C112.80877659 178.54312259 105.84940866 191.26983358 96 201 C92.38853714 203.40764191 90.74264495 203.25750734 86.44490051 203.27415466 C85.44118464 203.28200968 85.44118464 203.28200968 84.41719168 203.29002339 C82.16975064 203.30505201 79.92253672 203.30572919 77.67504883 203.30639648 C76.06511551 203.31401684 74.45518583 203.32244413 72.84526062 203.33161926 C68.46433141 203.35360219 64.08347205 203.36236995 59.70249391 203.36744571 C56.96037803 203.3710893 54.21828041 203.37732984 51.47617149 203.3844471 C41.89401829 203.40896904 32.3119193 203.42199633 22.72973633 203.42553711 C13.8269934 203.42915932 4.92459801 203.45895274 -3.97803897 203.50094169 C-11.637746 203.53578881 -19.29733888 203.55108815 -26.95712453 203.55178314 C-31.52405866 203.55257203 -36.09064009 203.56112758 -40.65749168 203.58978081 C-44.96603156 203.61620457 -49.27393282 203.61803327 -53.58251762 203.60212517 C-55.15128233 203.60032892 -56.72008576 203.60683332 -58.28876877 203.62294388 C-73.79989097 203.77233206 -87.39120653 200.53900552 -100 191 C-100.72703125 190.45472656 -101.4540625 189.90945312 -102.203125 189.34765625 C-113.15433639 180.46547144 -120.13481999 166.93555918 -122 153 C-122.17154255 150.60291856 -122.15057265 148.40916233 -122 146 C-120.44341518 144.44341518 -118.92132264 144.83690601 -116.75561523 144.79467773 C-115.85475693 144.77473251 -114.95389862 144.75478729 -114.02574158 144.73423767 C-112.5570034 144.70916893 -112.5570034 144.70916893 -111.05859375 144.68359375 C-110.06118668 144.66281265 -109.0637796 144.64203156 -108.03614807 144.62062073 C-104.83667157 144.55501363 -101.63711018 144.49618866 -98.4375 144.4375 C-96.27407961 144.39432538 -94.11066794 144.35071145 -91.94726562 144.30664062 C-86.63160126 144.19932097 -81.31585166 144.09757573 -76 144 C-76.90709717 143.13097046 -76.90709717 143.13097046 -77.83251953 142.24438477 C-88.59774781 131.74465688 -95.72866149 119.58282701 -96.203125 104.28515625 C-96.22420997 102.5443284 -96.23970628 100.8034251 -96.25 99.0625 C-96.270625 98.19431641 -96.29125 97.32613281 -96.3125 96.43164062 C-96.34636972 90.83043495 -95.57762248 86.98566453 -93 82 C-83.81942744 84.36803872 -74.82213066 87.25091212 -65.8125 90.1875 C-64.36921657 90.65583306 -62.92585766 91.1239336 -61.48242188 91.59179688 C-57.98740883 92.72519069 -54.49342143 93.86170849 -51 95 C-50.67 94.67 -50.34 94.34 -50 94 C-50.40992188 93.154375 -50.81984375 92.30875 -51.2421875 91.4375 C-58.05373717 77.09739542 -61.17739836 61.63574304 -56 46 C-53.61610625 40.52445271 -50.83407719 35.25292912 -48 30 C-44.53625113 30.62076813 -42.3938635 31.95460237 -39.59375 34.0546875 C-38.76746094 34.66957031 -37.94117188 35.28445312 -37.08984375 35.91796875 C-36.23519531 36.56378906 -35.38054687 37.20960937 -34.5 37.875 C-33.64535156 38.51308594 -32.79070312 39.15117188 -31.91015625 39.80859375 C-29.60228382 41.53319733 -27.30029376 43.26530912 -25 45 C-23.66694134 46.00036612 -22.33369575 47.0004834 -21 48 C-20.89042969 46.96101563 -20.78085938 45.92203125 -20.66796875 44.8515625 C-18.62258113 26.42315131 -13.37429876 13.37429876 0 0 Z " fill="#D36E19" transform="translate(217,54)"/>
<path d="M0 0 C6.45406988 0.05023588 12.9080111 0.07583455 19.36223412 0.09643078 C24.42414755 0.11685272 29.48582485 0.15471934 34.54759598 0.19729042 C36.92908633 0.21443018 39.3106319 0.22527879 41.69218063 0.22923851 C64.41766714 0.27832057 83.02111999 2.76029386 100.27539062 18.86791992 C109.09567271 28.11374193 115.41673529 41.82803558 115.31054688 54.62963867 C115.30547119 55.42716553 115.30039551 56.22469238 115.29516602 57.04638672 C115.28864014 57.64749268 115.28211426 58.24859863 115.27539062 58.86791992 C94.03846181 58.98505522 72.80158677 59.07305539 51.56439972 59.12698078 C41.70216531 59.15269198 31.84013238 59.18770601 21.97802734 59.24511719 C13.3757648 59.29517018 4.77364828 59.32726233 -3.82875586 59.3383624 C-8.37788835 59.34484433 -12.92660336 59.35992837 -17.4756012 59.39657021 C-21.77010343 59.43087706 -26.06402204 59.44090412 -30.3586483 59.43345833 C-31.9225909 59.43481758 -33.48655601 59.44454152 -35.0503788 59.4639473 C-50.55197899 59.6466365 -64.12519157 56.39983241 -76.72460938 46.86791992 C-77.81515625 46.05000977 -77.81515625 46.05000977 -78.92773438 45.21557617 C-89.87894577 36.33339136 -96.85942937 22.80347911 -98.72460938 8.86791992 C-98.89615193 6.47083848 -98.87518202 4.27708225 -98.72460938 1.86791992 C-96.68435321 -0.17233625 -92.45832374 0.60475061 -89.65185547 0.54492188 C-88.795033 0.52354597 -87.93821053 0.50217007 -87.05542374 0.48014641 C-84.16140672 0.41123341 -81.26730514 0.3515616 -78.37304688 0.29370117 C-77.36361401 0.27249018 -76.35418114 0.25127918 -75.31415939 0.22942543 C-50.20918665 -0.28391372 -25.10805126 -0.19944678 0 0 Z " fill="#E9862E" transform="translate(193.724609375,198.132080078125)"/>
<path d="M0 0 C3.11118389 2.33714539 5.86368929 4.70784733 7.6171875 8.21484375 C8.9371875 5.24484375 10.2571875 2.27484375 11.6171875 -0.78515625 C18.5471875 -0.78515625 25.4771875 -0.78515625 32.6171875 -0.78515625 C28.99888597 19.0663826 25.16566751 38.8697896 21.24755859 58.66387939 C20.49523713 62.46644138 19.74478295 66.26937188 18.99414062 70.07226562 C17.53691528 77.45347357 16.07755849 84.8342574 14.6171875 92.21484375 C7.6871875 92.21484375 0.7571875 92.21484375 -6.3828125 92.21484375 C-6.7128125 88.58484375 -7.0428125 84.95484375 -7.3828125 81.21484375 C-7.96546875 81.73433594 -8.548125 82.25382812 -9.1484375 82.7890625 C-18.66769014 90.8864142 -27.49388298 95.15980996 -40.1796875 94.62890625 C-47.21253653 93.71978186 -51.70576783 90.73599708 -56.06640625 85.2109375 C-63.7422182 73.57194668 -64.19967867 58.48888077 -61.734375 45.05859375 C-57.45197505 27.6361803 -48.45938115 12.30472664 -33.3828125 2.21484375 C-23.4526416 -3.14651613 -10.2522081 -6.18212548 0 0 Z " fill="#F47D02" transform="translate(611.3828125,160.78515625)"/>
<path d="M0 0 C8.58 0 17.16 0 26 0 C25.32644915 6.73550847 24.51217928 13.01968114 23.07421875 19.57421875 C22.88639832 20.45356079 22.69857788 21.33290283 22.50506592 22.2388916 C22.10727766 24.10098577 21.70734701 25.96262342 21.3053894 27.82382202 C17.85191443 43.82934041 14.56718464 59.82494151 12 76 C12.62003906 75.319375 13.24007812 74.63875 13.87890625 73.9375 C20.03724495 67.19649461 26.24945816 60.51014216 32.51977539 53.87304688 C33.41297485 52.92461914 33.41297485 52.92461914 34.32421875 51.95703125 C34.93313965 51.32676025 35.54206055 50.69648926 36.16943359 50.04711914 C38.07339883 48.00310916 38.07339883 48.00310916 39.70947266 45.52905273 C42.5734506 41.60160955 44.47936839 39.32322979 49.3503418 38.2878418 C53.2718243 38.11460769 57.08154463 38.21298517 61 38.4375 C62.36054379 38.48272179 63.72123292 38.52377296 65.08203125 38.56054688 C68.39176739 38.66617675 71.69398408 38.81375007 75 39 C70.9589464 43.7910149 66.79443081 48.43547533 62.5 53 C61.27598474 54.30593623 60.05202826 55.61192756 58.828125 56.91796875 C58.20228516 57.58489746 57.57644531 58.25182617 56.93164062 58.93896484 C53.09303095 63.03471091 49.26948899 67.14455128 45.44335938 71.25195312 C44.61288086 72.14237305 44.61288086 72.14237305 43.765625 73.05078125 C43.27868164 73.57325439 42.79173828 74.09572754 42.29003906 74.6340332 C41.21278748 75.77468851 40.10940649 76.89059351 39 78 C39.25328966 84.117539 41.53802986 89.15800251 44 94.6953125 C44.39574219 95.60578339 44.79148437 96.51625427 45.19921875 97.45431519 C46.45810027 100.34813557 47.7281566 103.23685561 49 106.125 C50.27055636 109.0208097 51.53855686 111.91765654 52.80078125 114.81710815 C53.58468858 116.6168274 54.37354905 118.41439944 55.16796875 120.20950317 C55.52503906 121.02740326 55.88210938 121.84530334 56.25 122.68798828 C56.56453125 123.40189728 56.8790625 124.11580627 57.203125 124.85134888 C58 127 58 127 59 132 C50.42 132 41.84 132 33 132 C28.71 120.45 24.42 108.9 20 97 C17.60749742 96.76984142 17.60749742 96.76984142 15.25 99.625 C14.16175635 100.74525081 13.07863074 101.87049045 12 103 C10.03794906 105.05460051 8.05703378 107.03646776 6 109 C5.34 109 4.68 109 4 109 C3.96261719 109.65484375 3.92523437 110.3096875 3.88671875 110.984375 C3.82097656 111.89703125 3.75523437 112.8096875 3.6875 113.75 C3.62949219 114.63171875 3.57148437 115.5134375 3.51171875 116.421875 C2.75812576 121.6912733 1.29102013 126.83591946 0 132 C-8.58 132 -17.16 132 -26 132 C-24.59407069 122.40482928 -22.86741401 112.90621707 -20.953125 103.40234375 C-20.65627669 101.91862361 -20.35963027 100.43486306 -20.06317139 98.95106506 C-19.44301887 95.85039158 -18.82090733 92.75012002 -18.19726562 89.65014648 C-17.41648486 85.7686281 -16.63987213 81.88629109 -15.86462593 78.00366402 C-12.67700587 62.04609214 -9.43560202 46.1039362 -5.97320557 30.20335388 C-3.79218307 20.16847929 -1.87506086 10.09648153 0 0 Z " fill="#F47D03" transform="translate(937,121)"/>
<path d="M0 0 C8.58 0 17.16 0 26 0 C24.87459271 7.87785103 24.87459271 7.87785103 24.13964844 11.65234375 C23.89345512 12.92266953 23.89345512 12.92266953 23.64228821 14.21865845 C23.46642685 15.11587616 23.29056549 16.01309387 23.109375 16.9375 C22.83174568 18.36296646 22.83174568 18.36296646 22.54850769 19.81723022 C21.95122838 22.878593 21.35088094 25.93934226 20.75 29 C20.54746613 30.03457336 20.34493225 31.06914673 20.13626099 32.1350708 C17.26406984 46.796268 14.31700395 61.43185201 11 76 C11.66 76 12.32 76 13 76 C13.24363281 75.42765625 13.48726562 74.8553125 13.73828125 74.265625 C15.22517298 71.59566462 16.98083908 69.86170993 19.1875 67.75 C24.66611226 62.4920674 29.68431835 56.9866811 33.98046875 50.71875 C38.21513085 44.93990164 42.1251152 39.81692728 49.42773438 38.27734375 C57.64725079 37.60549502 65.81396213 38.10881614 74 39 C72.20467891 42.87949716 69.89932945 45.26961294 66.8125 48.25 C62.88987443 52.08062914 59.16912392 56.0018834 55.609375 60.171875 C53.97413566 62.02937988 52.26518207 63.76606009 50.5 65.5 C43.02465187 72.41355679 43.02465187 72.41355679 38 81 C38.80307041 84.04081804 38.80307041 84.04081804 40.3671875 87.28515625 C40.63728134 87.8946965 40.90737518 88.50423676 41.18565369 89.13224792 C42.06804657 91.11563173 42.97149845 93.08865535 43.875 95.0625 C44.48178523 96.41882667 45.08684277 97.77592756 45.69018555 99.13378906 C46.89165667 101.83499248 48.09960428 104.53313189 49.31298828 107.22900391 C51.5477144 112.20715513 53.69408258 117.22138787 55.8125 122.25 C56.1429834 123.022229 56.4734668 123.79445801 56.81396484 124.59008789 C59 129.76234986 59 129.76234986 59 132 C50.42 132 41.84 132 33 132 C31.1455785 127.05317781 29.29314641 122.10570558 27.44580078 117.15625 C26.8164408 115.47189164 26.18591103 113.78796991 25.55419922 112.10449219 C24.64765201 109.68798174 23.74529028 107.26994463 22.84375 104.8515625 C22.55939087 104.0963028 22.27503174 103.34104309 21.98205566 102.56289673 C20 97.22774341 20 97.22774341 20 95 C18.8095016 96.017335 17.6228126 97.03912764 16.4375 98.0625 C15.77621094 98.63097656 15.11492188 99.19945312 14.43359375 99.78515625 C13.63050781 100.51605469 12.82742188 101.24695313 12 102 C11.42709229 102.45818115 10.85418457 102.9163623 10.26391602 103.38842773 C4.4783939 108.40751454 3.33943474 113.57883117 2.0625 120.9375 C1.381875 124.588125 0.70125 128.23875 0 132 C-8.58 132 -17.16 132 -26 132 C-24.40476069 119.67540298 -22.02361419 107.5680564 -19.5703125 95.390625 C-19.13406675 93.21178736 -18.69810827 91.03289219 -18.26242065 88.85394287 C-17.35197282 84.30481598 -16.43896455 79.75621343 -15.52392578 75.20800781 C-14.3613136 69.428837 -13.20373295 63.64867335 -12.04792976 57.86813736 C-11.14860496 53.372062 -10.24726165 48.87639319 -9.34527206 44.38085175 C-8.91829728 42.25226529 -8.4917623 40.12359056 -8.06570816 37.99481964 C-5.52184786 25.29426281 -2.85443376 12.63464673 0 0 Z " fill="#F47D03" transform="translate(759,121)"/>
<path d="M0 0 C3.48176399 2.6680608 6.54247277 5.61015127 9.45703125 8.8828125 C-1.76780312 22.29785845 -1.76780312 22.29785845 -7.54296875 24.8828125 C-8.05085938 24.41230469 -8.55875 23.94179687 -9.08203125 23.45703125 C-9.77039063 22.83441406 -10.45875 22.21179688 -11.16796875 21.5703125 C-11.84085937 20.95542969 -12.51375 20.34054688 -13.20703125 19.70703125 C-20.2379264 14.21634892 -26.89035806 13.94988884 -35.54296875 14.8828125 C-38.90456526 16.06178969 -40.7570806 17.84686903 -42.91796875 20.6953125 C-43.85679616 23.98120843 -43.9607319 26.48102685 -43.54296875 29.8828125 C-39.99315505 34.00646827 -35.87603247 36.88679795 -31.35546875 39.8203125 C-30.69345459 40.25706299 -30.03144043 40.69381348 -29.34936523 41.14379883 C-25.65972507 43.56216946 -21.92636405 45.86321149 -18.10546875 48.0703125 C-9.48003444 53.17955479 -4.49777477 58.52997955 -0.29296875 67.5703125 C2.17278592 78.46072896 0.17721955 88.63099262 -4.94140625 98.359375 C-10.04995681 106.4084571 -16.84047635 111.2951956 -25.54296875 114.8828125 C-26.3215625 115.23472656 -27.10015625 115.58664063 -27.90234375 115.94921875 C-40.16116247 120.28332774 -56.92468019 119.40711018 -68.54296875 113.8828125 C-76.52110853 110.04370764 -82.80586544 104.61666507 -88.54296875 97.8828125 C-88.87296875 96.8928125 -89.20296875 95.9028125 -89.54296875 94.8828125 C-87.46081572 93.11057531 -85.37729956 91.33998524 -83.29296875 89.5703125 C-82.70644531 89.07080078 -82.11992187 88.57128906 -81.515625 88.05664062 C-73.0590594 80.8828125 -73.0590594 80.8828125 -70.54296875 80.8828125 C-69.54570713 82.05922292 -68.59552008 83.27569207 -67.66796875 84.5078125 C-62.35363407 90.66586629 -56.00543394 94.21078361 -47.9375 95.42578125 C-41.46014431 95.68265388 -36.22926775 95.30924935 -30.96484375 91.3046875 C-28.10752941 88.44737316 -27.71442019 85.86865829 -27.04296875 82.0078125 C-27.77675921 77.4216221 -30.21391895 75.02331582 -33.54296875 71.8828125 C-36.83548469 69.53710452 -40.29382617 67.52791691 -43.79296875 65.5078125 C-65.38613222 52.57383641 -65.38613222 52.57383641 -69.60546875 39.62109375 C-72.11877048 29.59930312 -71.483577 20.50869708 -66.296875 11.53125 C-59.53422773 1.319502 -50.27108191 -5.59629053 -38.2265625 -8.6796875 C-24.15226431 -10.97418735 -11.74316125 -7.9433975 0 0 Z " fill="#F47D03" transform="translate(465.54296875,137.1171875)"/>
<path d="M0 0 C3.99153736 3.20050376 6.51122403 7.03367209 8.125 11.875 C9.5339075 27.67786867 5.96715337 42.69045051 2.6875 58.0625 C1.9095797 61.79193435 1.13660809 65.52236726 0.36448669 69.25300598 C-0.11398166 71.55562317 -0.59677312 73.85734772 -1.08457947 76.15800476 C-2.44496149 82.58322801 -2.44496149 82.58322801 -3.46899414 89.06762695 C-3.875 91.875 -3.875 91.875 -4.875 92.875 C-6.72869611 92.96237645 -8.58567541 92.98198153 -10.44140625 92.97265625 C-11.56611328 92.96943359 -12.69082031 92.96621094 -13.84960938 92.96289062 C-15.03361328 92.95451172 -16.21761719 92.94613281 -17.4375 92.9375 C-18.62537109 92.93298828 -19.81324219 92.92847656 -21.03710938 92.92382812 C-23.98312226 92.91199675 -26.92903681 92.89551287 -29.875 92.875 C-29.30341362 85.53038907 -28.1028804 78.44676041 -26.58984375 71.2421875 C-26.13723094 69.03258052 -25.68476125 66.82294422 -25.23242188 64.61328125 C-24.52180692 61.17212405 -23.80865274 57.73151906 -23.0925293 54.29150391 C-22.39742371 50.94307419 -21.71191464 47.59278437 -21.02734375 44.2421875 C-20.81174301 43.22115936 -20.59614227 42.20013123 -20.37400818 41.14816284 C-18.13904324 31.57532583 -18.13904324 31.57532583 -20.25 22.375 C-24.42942031 19.98675982 -28.19262837 19.96186888 -32.875 20.875 C-36.24046095 22.47279771 -39.04905461 24.45800404 -41.875 26.875 C-42.70539795 27.58277588 -43.5357959 28.29055176 -44.39135742 29.01977539 C-47.28487811 32.34620067 -48.02944725 35.13916677 -48.71875 39.359375 C-48.8536937 40.08463379 -48.98863739 40.80989258 -49.12767029 41.55712891 C-49.56152948 43.91020409 -49.96823481 46.26710535 -50.375 48.625 C-50.66925435 50.24549095 -50.96557322 51.86560833 -51.26391602 53.48535156 C-51.86103418 56.73496927 -52.44951182 59.98596422 -53.03173828 63.23828125 C-54.19995252 69.71910077 -55.50219286 76.17152658 -56.8125 82.625 C-57.8334375 87.69875 -57.8334375 87.69875 -58.875 92.875 C-67.455 92.875 -76.035 92.875 -84.875 92.875 C-82.88113891 81.42743525 -80.7795501 70.01007659 -78.5546875 58.60546875 C-78.24738961 57.02510954 -77.9401916 55.44473091 -77.63308716 53.86433411 C-76.99704583 50.59288627 -76.36000294 47.3216357 -75.72216797 44.05053711 C-74.90561154 39.86257527 -74.09136666 35.67416789 -73.27781487 31.48562145 C-72.64722803 28.24014171 -72.01558734 24.99486778 -71.38360977 21.74965858 C-71.08270232 20.20396917 -70.78208806 18.65822265 -70.48177719 17.11241722 C-70.06426077 14.96430543 -69.64535925 12.81646835 -69.22607422 10.66870117 C-68.98863495 9.44978683 -68.75119568 8.2308725 -68.50656128 6.97502136 C-68.02179457 4.5955418 -67.46396328 2.23085313 -66.875 -0.125 C-59.945 -0.125 -53.015 -0.125 -45.875 -0.125 C-45.875 3.835 -45.875 7.795 -45.875 11.875 C-44.96878906 11.19953125 -44.06257813 10.5240625 -43.12890625 9.828125 C-31.11613584 0.96912049 -15.10407791 -8.78937867 0 0 Z " fill="#020202" transform="translate(1431.875,160.125)"/>
<path d="M0 0 C7.26 0 14.52 0 22 0 C20.68 8.25 19.36 16.5 18 25 C24.6 25 31.2 25 38 25 C37.690625 27.5575 37.38125 30.115 37.0625 32.75 C36.96718994 33.54889648 36.87187988 34.34779297 36.77368164 35.17089844 C36.35971735 38.53515275 35.82370195 41.70519221 35 45 C27.74 45 20.48 45 13 45 C12.66226563 46.83304688 12.32453125 48.66609375 11.9765625 50.5546875 C11.52608041 52.99479882 11.07555741 55.43490259 10.625 57.875 C10.29242187 59.68097656 10.29242187 59.68097656 9.953125 61.5234375 C9.62441406 63.30234375 9.62441406 63.30234375 9.2890625 65.1171875 C8.96446045 66.8794165 8.96446045 66.8794165 8.63330078 68.67724609 C8.08044804 71.57791138 7.47063831 74.45850628 6.84375 77.34375 C5.93916783 81.81533705 5.76276341 86.07510115 5.875 90.625 C5.88402344 91.34300781 5.89304687 92.06101562 5.90234375 92.80078125 C5.92545341 94.53400579 5.96129896 96.26705349 6 98 C8.94826763 98.98275588 10.92652504 99.13414725 14 99.125 C15.299375 99.12886719 15.299375 99.12886719 16.625 99.1328125 C19.15011695 99.09594205 19.15011695 99.09594205 22 98 C23.32 103.94 24.64 109.88 26 116 C14.98775528 120.12959177 3.34264758 122.20427774 -8.296875 119.12890625 C-15.0599914 116.0035267 -18.43654736 111.64805616 -21.3125 104.9375 C-23.24887987 93.8473244 -21.64086467 83.30074357 -19.1875 72.4375 C-18.79594727 70.62088867 -18.79594727 70.62088867 -18.39648438 68.76757812 C-16.67412413 60.82771005 -14.83894614 52.91354298 -13 45 C-16.96 45 -20.92 45 -25 45 C-24.26984513 38.57463712 -23.02630841 32.14679201 -21 26 C-18.23547967 24.61773984 -15.9538637 24.90474613 -12.875 24.9375 C-11.77929688 24.94652344 -10.68359375 24.95554688 -9.5546875 24.96484375 C-8.71164062 24.97644531 -7.86859375 24.98804688 -7 25 C-6.89816406 24.03964844 -6.79632813 23.07929688 -6.69140625 22.08984375 C-6.01973681 17.38815768 -4.49030026 13.0349761 -2.9375 8.5625 C-1.968125 5.736875 -0.99875 2.91125 0 0 Z " fill="#F47D03" transform="translate(508,135)"/>
<path d="M0 0 C5.57933046 2.92723033 10.44488089 6.40407899 14.94506836 10.79711914 C10.82886999 15.71647816 6.54096474 20.3235987 1.94506836 24.79711914 C-0.58322776 23.57938688 -2.77266629 22.31374683 -5.11743164 20.73461914 C-10.31541533 17.30616181 -15.00734792 17.38303299 -21.05493164 17.79711914 C-24.03473365 18.64771927 -24.03473365 18.64771927 -26.05493164 19.79711914 C-26.19089027 21.21108887 -26.28737009 22.62888598 -26.36743164 24.04711914 C-26.45444336 25.23047852 -26.45444336 25.23047852 -26.54321289 26.43774414 C-25.81372292 29.96263968 -24.00126279 30.83157477 -21.05493164 32.79711914 C-18.84357734 34.0580501 -16.61277547 35.28525855 -14.36743164 36.48461914 C-6.58636934 40.80117318 2.33390153 46.42026178 6.39428711 54.65649414 C8.19588659 61.65845526 8.12256531 70.36331834 5.03100586 77.00024414 C-0.54939767 86.23400537 -8.67066269 90.96614812 -18.86743164 94.17211914 C-30.70043265 96.5683636 -42.66419325 95.42270452 -52.86743164 88.92211914 C-57.76592847 85.43183216 -61.44221376 81.61407631 -65.05493164 76.79711914 C-60.43493164 72.83711914 -55.81493164 68.87711914 -51.05493164 64.79711914 C-47.28573923 66.68171535 -44.89548235 68.57843668 -41.83618164 71.35961914 C-36.42296915 75.72817659 -30.76987503 75.50442651 -24.05493164 74.79711914 C-21.05008768 73.87127238 -20.27485437 73.20203544 -18.05493164 70.79711914 C-17.13826497 67.29711914 -17.13826497 67.29711914 -18.05493164 63.79711914 C-21.72768531 60.36463908 -25.97073704 58.02544413 -30.30493164 55.54711914 C-46.8109966 45.82194584 -46.8109966 45.82194584 -50.46118164 37.25415039 C-52.55998087 28.56898778 -52.18974651 19.6289716 -47.59399414 11.87524414 C-37.31523792 -2.00368558 -15.70636867 -7.16016571 0 0 Z " fill="#F47D03" transform="translate(892.054931640625,160.202880859375)"/>
<path d="M0 0 C2.88542054 2.26711614 4.57077897 4.10560006 6 7.5 C1.64157559 12.09687924 -2.74276241 15.95941142 -8 19.5 C-8.58265625 18.9946875 -9.1653125 18.489375 -9.765625 17.96875 C-15.5808285 13.36047553 -19.8619367 11.45750164 -27.34375 11.94921875 C-30.2530002 12.39306934 -30.2530002 12.39306934 -33.3125 14.5625 C-35.21640046 17.44068675 -35.21640046 17.44068675 -35.4375 20.9375 C-33.22699374 26.41571118 -29.05846485 27.82721654 -24 30.5 C-3.63224202 42.6250051 -3.63224202 42.6250051 -1 52.5 C0.17977477 61.26404113 -0.89416385 68.22729681 -6 75.5 C-11.89655971 83.07747945 -19.64328531 87.45009214 -29 89.5 C-42.70148232 90.81616866 -53.71188679 89.3473588 -65 81 C-68.08530184 78.44104729 -70.69580351 75.80602105 -73 72.5 C-68.99191229 67.19898077 -64.33731159 63.43030788 -59 59.5 C-51 65.5 -51 65.5 -48.921875 67.13671875 C-44.19269611 70.49135987 -38.54526093 69.91925653 -33 69.5 C-29.37262429 68.69179214 -29.37262429 68.69179214 -27 66.5 C-25.6690684 63.10030189 -25.6690684 63.10030189 -26 59.5 C-29.28744761 55.23946789 -34.10923156 52.95857366 -38.6875 50.3125 C-46.93589864 45.39757848 -53.83932928 40.48045084 -59.0625 32.25 C-61.20453387 23.68186452 -61.15174728 15.55441264 -56.6796875 7.78515625 C-51.50092174 0.73962609 -44.3288444 -4.83035834 -35.80859375 -7.078125 C-22.50131996 -9.07699227 -11.00787376 -8.08635276 0 0 Z " fill="#F47D03" transform="translate(1232,165.5)"/>
<path d="M0 0 C2.34482169 1.72692949 4.32112733 3.58268187 6.3125 5.703125 C4.94357063 8.80015828 3.39132641 10.82074108 0.9375 13.140625 C-1.84895273 15.83981929 -4.33983381 18.60420563 -6.6875 21.703125 C-8.98911177 20.55231912 -11.21900394 19.38905449 -13.4375 18.078125 C-18.07321133 16.11686251 -21.97245802 15.87771071 -26.73046875 17.32421875 C-35.60808799 21.18778612 -40.03662173 28.59844027 -43.7421875 37.1875 C-45.6143683 42.1696671 -45.9010798 46.77898603 -45.9375 52.078125 C-45.958125 52.820625 -45.97875 53.563125 -46 54.328125 C-46.03479756 59.2519797 -45.18984927 62.34376916 -42.6875 66.703125 C-42.6875 67.363125 -42.6875 68.023125 -42.6875 68.703125 C-36.82144295 71.42898794 -31.04639405 71.38443508 -24.6875 70.703125 C-22.04558649 69.629286 -20.06893206 68.30800313 -17.6875 66.703125 C-13.66664624 68.04340959 -12.8232055 70.01600578 -10.5 73.515625 C-9.42685547 75.10310547 -9.42685547 75.10310547 -8.33203125 76.72265625 C-6.6875 79.703125 -6.6875 79.703125 -6.6875 83.703125 C-8.91541998 84.83065149 -11.14475887 85.95520639 -13.375 87.078125 C-14.00083984 87.39523438 -14.62667969 87.71234375 -15.27148438 88.0390625 C-17.06911543 88.94258387 -18.87814029 89.82332633 -20.6875 90.703125 C-21.85152344 91.29867187 -21.85152344 91.29867187 -23.0390625 91.90625 C-32.05666392 94.6195106 -45.25172072 94.20368601 -53.65625 89.95703125 C-54.3265625 89.54324219 -54.996875 89.12945312 -55.6875 88.703125 C-56.75484375 88.06697266 -56.75484375 88.06697266 -57.84375 87.41796875 C-65.42928663 82.33735746 -70.4213606 74.52046741 -72.6875 65.703125 C-73.12603655 61.77795655 -73.16389023 57.89986576 -73.125 53.953125 C-73.11742676 52.88489502 -73.10985352 51.81666504 -73.10205078 50.71606445 C-72.94240582 43.08748256 -72.12234455 36.60491545 -68.6875 29.703125 C-68.26339844 28.77886719 -67.83929687 27.85460937 -67.40234375 26.90234375 C-60.44886035 12.89853179 -48.29890801 1.74110835 -33.4765625 -3.44140625 C-21.99911783 -6.03270561 -10.36503907 -5.96592365 0 0 Z " fill="#F47D03" transform="translate(725.6875,162.296875)"/>
<path d="M0 0 C8.58 0 17.16 0 26 0 C24.38609384 11.30422884 22.17753214 22.44643298 19.90234375 33.6328125 C19.5038235 35.60240505 19.10551687 37.57204083 18.70741272 39.54171753 C17.87804524 43.64180528 17.04663048 47.74147057 16.21362305 51.84082031 C15.14541861 57.09808986 14.08162302 62.35623977 13.01923275 67.61468697 C12.19971944 71.66921358 11.37830973 75.72335409 10.55627632 79.77737045 C10.16305802 81.71738574 9.77033853 83.6575022 9.37812614 85.5977211 C8.83199864 88.29746486 8.283418 90.99669836 7.73413086 93.69580078 C7.49176697 94.89731026 7.49176697 94.89731026 7.24450684 96.12309265 C6.62633785 99.15003845 5.97804557 102.06586329 5 105 C4.96045766 107.33299825 4.95598268 109.66708189 5 112 C6.98 112.33 8.96 112.66 11 113 C11 119.6 11 126.2 11 133 C6.45433009 133.90913398 2.22841632 134.25214052 -2.375 134.3125 C-3.10460938 134.34150391 -3.83421875 134.37050781 -4.5859375 134.40039062 C-10.19426076 134.46548723 -13.38470822 133.20376219 -18 130 C-23.5176406 122.64314587 -22.86092803 113.17247218 -21.64293289 104.43998718 C-20.43404892 97.16806132 -18.92740034 89.95364423 -17.44140625 82.734375 C-16.97187922 80.40527061 -16.5034681 78.07594102 -16.03611755 75.74639893 C-15.05977705 70.89353861 -14.07486234 66.04253408 -13.08276367 61.19287109 C-11.80923882 54.96744344 -10.55007397 48.73922703 -9.29631138 42.50979233 C-8.0990503 36.56293361 -6.89585626 30.61728131 -5.69140625 24.671875 C-5.46154085 23.5357653 -5.23167545 22.39965561 -4.99484444 21.22911835 C-4.34688169 18.03326114 -3.69482328 14.83827061 -3.04125977 11.64355469 C-2.84848953 10.69091232 -2.6557193 9.73826996 -2.45710754 8.75675964 C-2.27903564 7.89075638 -2.10096375 7.02475311 -1.91749573 6.13250732 C-1.7635563 5.37822826 -1.60961687 4.6239492 -1.45101261 3.8468132 C-1 2 -1 2 0 0 Z " fill="#F47E04" transform="translate(1086,121)"/>
<path d="M0 0 C8.58 0 17.16 0 26 0 C24.874388 11.25611995 24.874388 11.25611995 23.80078125 16.5546875 C23.56431885 17.73111816 23.32785645 18.90754883 23.08422852 20.11962891 C22.7022229 21.9785376 22.7022229 21.9785376 22.3125 23.875 C22.04262069 25.20616341 21.77301347 26.53738201 21.50366211 27.86865234 C19.7565516 36.46865156 17.92278779 45.0487792 16.0625 53.625 C13.81694633 64.00983828 11.66503084 74.41119097 9.60397339 84.83416748 C9.28800732 86.42782824 8.96947934 88.02098349 8.64822388 89.61358643 C8.19794543 91.85033137 7.75784855 94.08885711 7.3203125 96.328125 C7.06523926 97.6162207 6.81016602 98.90431641 6.54736328 100.23144531 C5.96317288 104.2535519 5.90492968 107.94404138 6 112 C7.98 112.33 9.96 112.66 12 113 C12.11044961 119.73742646 11.70132913 126.29980211 11 133 C6.5088979 134.09387239 2.15899016 134.25259787 -2.4375 134.3125 C-3.17548828 134.34150391 -3.91347656 134.37050781 -4.67382812 134.40039062 C-9.93085701 134.46113851 -12.80675263 133.43083876 -17 130 C-22.35225032 123.90950826 -21.53712509 116.33698723 -21.20773315 108.66859818 C-20.48575304 99.39383984 -18.28020217 90.24631661 -16.40625 81.15234375 C-15.93399931 78.80038038 -15.46319909 76.44812535 -14.99377441 74.09559631 C-13.76531255 67.95913196 -12.51742465 61.8267819 -11.26519775 55.69512939 C-9.98646325 49.41569335 -8.72648789 43.13249718 -7.46484375 36.84960938 C-4.99471717 24.56267512 -2.50228979 12.28042448 0 0 Z " fill="#F47D03" transform="translate(1137,121)"/>
<path d="M0 0 C8.58 0 17.16 0 26 0 C25.32889719 6.03992527 24.54699011 11.81386739 23.32592773 17.73266602 C23.15997101 18.55328018 22.99401428 19.37389435 22.82302856 20.21937561 C22.28029298 22.89832813 21.7319966 25.57610867 21.18359375 28.25390625 C20.803533 30.12427364 20.42382347 31.99471243 20.04444885 33.86521912 C19.05005806 38.7632598 18.05092958 43.66032213 17.05078125 48.55718994 C16.02901469 53.56423251 15.01177336 58.57219408 13.99414062 63.58007812 C12.00049886 73.38762018 10.00142854 83.19404403 8 93 C-0.58 93 -9.16 93 -18 93 C-16.55180853 83.1081458 -14.76063628 73.31734032 -12.8125 63.515625 C-12.5060592 61.9639691 -12.1998297 60.41227147 -11.89379883 58.86053467 C-11.25671226 55.63309053 -10.61785398 52.40600439 -9.97753906 49.17919922 C-9.161324 45.06577329 -8.34844973 40.95169636 -7.53675842 36.83737564 C-6.90623692 33.64227334 -6.27453474 30.44740543 -5.64242554 27.25261688 C-5.34241498 25.73616687 -5.04262564 24.21967307 -4.74307251 22.70313263 C-4.32330463 20.57953796 -3.90209232 18.45623473 -3.48046875 16.33300781 C-3.24223389 15.13089661 -3.00399902 13.9287854 -2.75854492 12.69024658 C-1.88695167 8.45003098 -0.93906344 4.22578549 0 0 Z " fill="#F47E03" transform="translate(1028,160)"/>
<path d="M0 0 C8.25 0 16.5 0 25 0 C24.38878214 6.72339644 23.77368792 13.01672523 22.43359375 19.56079102 C22.27899689 20.33947037 22.12440002 21.11814972 21.96511841 21.92042542 C21.46151338 24.44941004 20.94972585 26.97665491 20.4375 29.50390625 C20.082179 31.27692864 19.72728716 33.05003709 19.37280273 34.82322693 C18.63329515 38.5160999 17.88994924 42.20817118 17.14355469 45.8996582 C16.18594201 50.63643188 15.23605705 55.37471422 14.28874207 60.11355686 C13.55845472 63.76417968 12.82516787 67.41419451 12.09085083 71.06400871 C11.73929689 72.8122258 11.38844369 74.56058394 11.03829956 76.30908394 C10.55057242 78.74123943 10.05906031 81.17259816 9.56640625 83.60375977 C9.42196075 84.3273468 9.27751526 85.05093384 9.12869263 85.79644775 C8.11449006 90.77101988 8.11449006 90.77101988 7 93 C-1.25 93 -9.5 93 -18 93 C-18 85.14171479 -18 85.14171479 -17.07421875 81.16015625 C-16.75263794 79.72905518 -16.75263794 79.72905518 -16.42456055 78.26904297 C-16.18133057 77.21088379 -15.93810059 76.15272461 -15.6875 75.0625 C-11.94545861 58.27016341 -8.70548477 41.37993922 -5.43539429 24.49050903 C-4.72343158 20.8135583 -4.00827575 17.13723882 -3.29296875 13.4609375 C-3.0765271 12.33504715 -2.86008545 11.2091568 -2.63708496 10.04914856 C-2.43611206 9.01763168 -2.23513916 7.98611481 -2.02807617 6.92333984 C-1.85298019 6.01740082 -1.67788422 5.11146179 -1.4974823 4.17807007 C-1 2 -1 2 0 0 Z " fill="#020202" transform="translate(1316,160)"/>
<path d="M0 0 C3.85544798 1.99657127 5.59805092 3.39707638 8 7 C8.20849513 14.38618183 6.16350945 22.05389311 4.6875 29.25 C4.48705078 30.29929688 4.28660156 31.34859375 4.08007812 32.4296875 C2.52813158 40.02125265 0.61798773 45.1887556 -5.5 50.25 C-6.0671875 50.72953125 -6.634375 51.2090625 -7.21875 51.703125 C-11.98750431 55.17511279 -16.19077976 55.85063582 -22 55 C-25.59017249 52.86117384 -27.54431002 50.88395886 -29 47 C-30.18618869 33.33124428 -28.92296378 20.36875148 -20.65234375 8.94140625 C-14.5310301 1.7492245 -9.51623216 -1.08006316 0 0 Z " fill="#FEFDFB" transform="translate(605,179)"/>
<path d="M0 0 C4.07568017 2.08119838 6.25942267 3.69436134 8 8 C8.96174782 14.80260651 8.01215781 20.37255788 4 26 C-0.28692899 30.17700774 -3.99345319 31.84075025 -9.9375 32.3125 C-13.91403325 32.19245371 -16.65830089 31.25370405 -20 29 C-23.94259109 23.61179217 -23.77171351 18.44556173 -23 12 C-21.4375 8.625 -21.4375 8.625 -19 6 C-18.53722656 5.443125 -18.07445312 4.88625 -17.59765625 4.3125 C-12.62113843 -0.9438709 -6.93232608 -1.21835159 0 0 Z " fill="#030303" transform="translate(1268,223)"/>
<path d="M0 0 C3.44324849 1.90846719 5.33901391 3.52047489 6.75 7.3125 C7.32129253 12.54934818 6.62749982 15.90033361 3.75 20.3125 C-0.22683037 24.24691085 -3.3747416 26.46306074 -9 26.625 C-13.86568882 26.56883043 -16.55313386 25.64869627 -20.25 22.3125 C-23.13626121 18.84898655 -23.7888804 15.8219542 -23.6015625 11.30078125 C-22.80044729 6.77002966 -19.98752578 3.97807205 -16.6875 1 C-11.34049853 -2.70177025 -5.81311587 -2.65497741 0 0 Z " fill="#060606" transform="translate(1343.25,119.6875)"/>
<path d="M0 0 C3.15513357 2.07951985 4.88159747 3.50686475 6.75 6.8125 C7.66971331 12.40311683 7.03730392 17.10069772 3.75 21.8125 C-1.1117426 25.56009325 -4.92447017 27.17011657 -11.1171875 27.1015625 C-14.8416407 26.59678313 -17.18300515 24.95939639 -20.25 22.8125 C-23.23480598 18.33529103 -22.84394796 14.06029341 -22.25 8.8125 C-20.19768323 4.29740311 -17.52274213 1.72858216 -13.17578125 -0.49609375 C-8.58639778 -2.14380343 -4.57553233 -1.67182912 0 0 Z " fill="#F47E05" transform="translate(1055.25,119.1875)"/>
<path d="M0 0 C0.99 1.32 1.98 2.64 3 4 C3.99 3.34 4.98 2.68 6 2 C4.95125002 4.62187494 4.35068687 5.79371361 1.875 7.25 C1.25625 7.4975 0.6375 7.745 0 8 C0 5.36 0 2.72 0 0 Z " fill="#342213" transform="translate(309,249)"/>
</svg>
